%TF.GenerationSoftware,KiCad,Pcbnew,10.0.3*%
%TF.CreationDate,2026-07-02T13:46:23+08:00*%
%TF.ProjectId,fallout-badge,66616c6c-6f75-4742-9d62-616467652e6b,rev?*%
%TF.SameCoordinates,Original*%
%TF.FileFunction,Drillmap*%
%TF.FilePolarity,Positive*%
%FSLAX45Y45*%
G04 Gerber Fmt 4.5, Leading zero omitted, Abs format (unit mm)*
G04 Created by KiCad (PCBNEW 10.0.3) date 2026-07-02 13:46:23*
%MOMM*%
%LPD*%
G01*
G04 APERTURE LIST*
%ADD10C,0.050000*%
%ADD11C,0.200000*%
G04 APERTURE END LIST*
D10*
X6853460Y-5693791D02*
X6950186Y-5544754D01*
X6936000Y-5530000D01*
X6924000Y-5502000D01*
X6896000Y-5503000D01*
X6896000Y-5512000D01*
X6883000Y-5509000D01*
X6883000Y-5468000D01*
X6850000Y-5466000D01*
X6837000Y-5460000D01*
X6853000Y-5440000D01*
X6807000Y-5437000D01*
X6810000Y-5414000D01*
X6834000Y-5414000D01*
X6879000Y-5370000D01*
X6883000Y-5341000D01*
X6973000Y-5336000D01*
X6996000Y-5330000D01*
X7036000Y-5327000D01*
X7053000Y-5342000D01*
X7193000Y-5345000D01*
X7245000Y-5321000D01*
X7267000Y-5308000D01*
X7269000Y-5246000D01*
X7241000Y-5223000D01*
X7241000Y-5192000D01*
X7312000Y-5139000D01*
X7412000Y-5127000D01*
X7500000Y-5107000D01*
X7660000Y-4961000D01*
X7675000Y-4837000D01*
X7709000Y-4833000D01*
X7713000Y-4919000D01*
X7897000Y-4679000D01*
X7926000Y-4608000D01*
X7956000Y-4612000D01*
X7957000Y-4685000D01*
X7734000Y-5003000D01*
X7871000Y-4987000D01*
X7892000Y-4930000D01*
X7930000Y-4927000D01*
X7967000Y-4890000D01*
X7978000Y-4739000D01*
X8034000Y-4671000D01*
X8122000Y-4663000D01*
X8167000Y-4565000D01*
X8267000Y-4553000D01*
X8326000Y-4559000D01*
X8355000Y-4474000D01*
X8447000Y-4458000D01*
X8476000Y-4438000D01*
X8492000Y-4451000D01*
X8447000Y-4485000D01*
X8414000Y-4485000D01*
X8371000Y-4597000D01*
X8270000Y-4619000D01*
X8210000Y-4619000D01*
X8210000Y-4675000D01*
X8098000Y-4711000D01*
X8084000Y-4785000D01*
X8147000Y-4801000D01*
X8186000Y-4712000D01*
X8224000Y-4709000D01*
X8288000Y-4657000D01*
X8446000Y-4644000D01*
X8486000Y-4583000D01*
X8494000Y-4530000D01*
X8614000Y-4505000D01*
X8644000Y-4471000D01*
X8650000Y-4516000D01*
X8624000Y-4538000D01*
X8554000Y-4556000D01*
X8526000Y-4585000D01*
X8521000Y-4664000D01*
X8464000Y-4705000D01*
X8314000Y-4732000D01*
X8258000Y-4833000D01*
X8218000Y-4873000D01*
X8278000Y-4920000D01*
X8337000Y-4843000D01*
X8376000Y-4775000D01*
X8480000Y-4742000D01*
X8595000Y-4715000D01*
X8678000Y-4568000D01*
X8795000Y-4527000D01*
X8874000Y-4471000D01*
X8870000Y-4524000D01*
X8746747Y-4607000D01*
X8714000Y-4702000D01*
X8652000Y-4773000D01*
X8558000Y-4819000D01*
X8480000Y-4850000D01*
X8392000Y-4992000D01*
X8457000Y-5003000D01*
X8512000Y-4953000D01*
X8566000Y-4867000D01*
X8585000Y-4853000D01*
X8691000Y-4855000D01*
X8746747Y-4813000D01*
X8790000Y-4716000D01*
X8818000Y-4718000D01*
X8789000Y-4763000D01*
X8788000Y-4821000D01*
X8746747Y-4853000D01*
X8708000Y-4904000D01*
X8634000Y-4913000D01*
X8551000Y-5039000D01*
X8490000Y-5097000D01*
X8292000Y-5109000D01*
X8210000Y-5186000D01*
X8215000Y-5203000D01*
X8296000Y-5157000D01*
X8456000Y-5161000D01*
X8579000Y-5039000D01*
X8666000Y-5041000D01*
X8553000Y-5130000D01*
X9031000Y-5113000D01*
X9185000Y-4934000D01*
X9271000Y-4888000D01*
X9256000Y-5025000D01*
X9362000Y-5008000D01*
X9598000Y-4878000D01*
X9808000Y-4847000D01*
X10264000Y-4642000D01*
X10701000Y-4561000D01*
X10640000Y-4688000D01*
X10564000Y-4729000D01*
X10493000Y-4836000D01*
X10432000Y-4958000D01*
X10233000Y-5044000D01*
X10376000Y-5116000D01*
X10570000Y-5376000D01*
X10764000Y-5461000D01*
X10617000Y-5506000D01*
X10426000Y-5524000D01*
X10209000Y-5440000D01*
X9887000Y-5142000D01*
X9737000Y-5170000D01*
X9653000Y-5256000D01*
X9576000Y-5372000D01*
X9518000Y-5491000D01*
X9438000Y-5644000D01*
X9443000Y-5662000D01*
X9542000Y-5603000D01*
X9599000Y-5608000D01*
X9598000Y-5622000D01*
X9655000Y-5665000D01*
X9770000Y-5700000D01*
X9626000Y-5803000D01*
X9340000Y-5827000D01*
X9105000Y-6080000D01*
X8746747Y-6190000D01*
X8746747Y-6301000D01*
X8852000Y-6364000D01*
X8859000Y-6420000D01*
X8928000Y-6494000D01*
X8746747Y-6504000D01*
X8439000Y-6406000D01*
X8244000Y-6229000D01*
X8094000Y-6204000D01*
X8036000Y-6253000D01*
X8038000Y-6344000D01*
X7930000Y-6273000D01*
X7855000Y-6084000D01*
X7536000Y-5774000D01*
X7473000Y-5717000D01*
X7330000Y-5728000D01*
X7220000Y-5794000D01*
X7134000Y-5796000D01*
X7148000Y-5846000D01*
X7089000Y-5811000D01*
X7037000Y-5812000D01*
X7051000Y-5842000D01*
X6996000Y-5800000D01*
X6975000Y-5807000D01*
X6945000Y-5806000D01*
X6947000Y-5780000D01*
X6918000Y-5766000D01*
X6902000Y-5761000D01*
X6853460Y-5693791D01*
D11*
X7065277Y-6817984D02*
X7065277Y-6617984D01*
X7065277Y-6617984D02*
X7112896Y-6617984D01*
X7112896Y-6617984D02*
X7141467Y-6627508D01*
X7141467Y-6627508D02*
X7160515Y-6646555D01*
X7160515Y-6646555D02*
X7170039Y-6665603D01*
X7170039Y-6665603D02*
X7179562Y-6703698D01*
X7179562Y-6703698D02*
X7179562Y-6732269D01*
X7179562Y-6732269D02*
X7170039Y-6770365D01*
X7170039Y-6770365D02*
X7160515Y-6789412D01*
X7160515Y-6789412D02*
X7141467Y-6808460D01*
X7141467Y-6808460D02*
X7112896Y-6817984D01*
X7112896Y-6817984D02*
X7065277Y-6817984D01*
X7265277Y-6817984D02*
X7265277Y-6684650D01*
X7265277Y-6722746D02*
X7274801Y-6703698D01*
X7274801Y-6703698D02*
X7284324Y-6694174D01*
X7284324Y-6694174D02*
X7303372Y-6684650D01*
X7303372Y-6684650D02*
X7322420Y-6684650D01*
X7389086Y-6817984D02*
X7389086Y-6684650D01*
X7389086Y-6617984D02*
X7379562Y-6627508D01*
X7379562Y-6627508D02*
X7389086Y-6637031D01*
X7389086Y-6637031D02*
X7398610Y-6627508D01*
X7398610Y-6627508D02*
X7389086Y-6617984D01*
X7389086Y-6617984D02*
X7389086Y-6637031D01*
X7512896Y-6817984D02*
X7493848Y-6808460D01*
X7493848Y-6808460D02*
X7484324Y-6789412D01*
X7484324Y-6789412D02*
X7484324Y-6617984D01*
X7617658Y-6817984D02*
X7598610Y-6808460D01*
X7598610Y-6808460D02*
X7589086Y-6789412D01*
X7589086Y-6789412D02*
X7589086Y-6617984D01*
X7846229Y-6817984D02*
X7846229Y-6617984D01*
X7846229Y-6617984D02*
X7912896Y-6760841D01*
X7912896Y-6760841D02*
X7979562Y-6617984D01*
X7979562Y-6617984D02*
X7979562Y-6817984D01*
X8160515Y-6817984D02*
X8160515Y-6713222D01*
X8160515Y-6713222D02*
X8150991Y-6694174D01*
X8150991Y-6694174D02*
X8131943Y-6684650D01*
X8131943Y-6684650D02*
X8093848Y-6684650D01*
X8093848Y-6684650D02*
X8074801Y-6694174D01*
X8160515Y-6808460D02*
X8141467Y-6817984D01*
X8141467Y-6817984D02*
X8093848Y-6817984D01*
X8093848Y-6817984D02*
X8074801Y-6808460D01*
X8074801Y-6808460D02*
X8065277Y-6789412D01*
X8065277Y-6789412D02*
X8065277Y-6770365D01*
X8065277Y-6770365D02*
X8074801Y-6751317D01*
X8074801Y-6751317D02*
X8093848Y-6741793D01*
X8093848Y-6741793D02*
X8141467Y-6741793D01*
X8141467Y-6741793D02*
X8160515Y-6732269D01*
X8255753Y-6684650D02*
X8255753Y-6884650D01*
X8255753Y-6694174D02*
X8274801Y-6684650D01*
X8274801Y-6684650D02*
X8312896Y-6684650D01*
X8312896Y-6684650D02*
X8331943Y-6694174D01*
X8331943Y-6694174D02*
X8341467Y-6703698D01*
X8341467Y-6703698D02*
X8350991Y-6722746D01*
X8350991Y-6722746D02*
X8350991Y-6779888D01*
X8350991Y-6779888D02*
X8341467Y-6798936D01*
X8341467Y-6798936D02*
X8331943Y-6808460D01*
X8331943Y-6808460D02*
X8312896Y-6817984D01*
X8312896Y-6817984D02*
X8274801Y-6817984D01*
X8274801Y-6817984D02*
X8255753Y-6808460D01*
X8436705Y-6798936D02*
X8446229Y-6808460D01*
X8446229Y-6808460D02*
X8436705Y-6817984D01*
X8436705Y-6817984D02*
X8427182Y-6808460D01*
X8427182Y-6808460D02*
X8436705Y-6798936D01*
X8436705Y-6798936D02*
X8436705Y-6817984D01*
X8436705Y-6694174D02*
X8446229Y-6703698D01*
X8446229Y-6703698D02*
X8436705Y-6713222D01*
X8436705Y-6713222D02*
X8427182Y-6703698D01*
X8427182Y-6703698D02*
X8436705Y-6694174D01*
X8436705Y-6694174D02*
X8436705Y-6713222D01*
M02*
