%TF.GenerationSoftware,KiCad,Pcbnew,10.0.3*%
%TF.CreationDate,2026-07-02T14:27:54+08:00*%
%TF.ProjectId,fallout-badge,66616c6c-6f75-4742-9d62-616467652e6b,rev?*%
%TF.SameCoordinates,Original*%
%TF.FileFunction,Legend,Top*%
%TF.FilePolarity,Positive*%
%FSLAX46Y46*%
G04 Gerber Fmt 4.6, Leading zero omitted, Abs format (unit mm)*
G04 Created by KiCad (PCBNEW 10.0.3) date 2026-07-02 14:27:54*
%MOMM*%
%LPD*%
G01*
G04 APERTURE LIST*
%ADD10C,0.100000*%
G04 APERTURE END LIST*
D10*
X73430000Y-53500000D02*
X73820000Y-53500000D01*
X72740000Y-53030000D02*
X73430000Y-53500000D01*
X78330000Y-53060000D02*
X81010000Y-52090000D01*
X78580000Y-54570000D02*
X78330000Y-53060000D01*
X78520000Y-54570000D02*
X78580000Y-54570000D01*
X77810000Y-55180000D02*
X78520000Y-54570000D01*
X78380000Y-55320000D02*
X77810000Y-55180000D01*
X77470000Y-55730000D02*
X78380000Y-55320000D01*
X77880000Y-56040000D02*
X77470000Y-55730000D01*
X77250000Y-56250000D02*
X77880000Y-56040000D01*
X77250000Y-57150000D02*
X77250000Y-56250000D01*
X76730000Y-56750000D02*
X77250000Y-57150000D01*
X76480000Y-57380000D02*
X76730000Y-56750000D01*
X75640000Y-55360000D02*
X75540000Y-55300000D01*
X75668062Y-55300000D02*
G75*
G02*
X75411938Y-55300000I-128062J0D01*
G01*
X75411938Y-55300000D02*
G75*
G02*
X75668062Y-55300000I128062J0D01*
G01*
X75653137Y-55360000D02*
G75*
G02*
X75426863Y-55360000I-113137J0D01*
G01*
X75426863Y-55360000D02*
G75*
G02*
X75653137Y-55360000I113137J0D01*
G01*
X75600000Y-55360000D02*
G75*
G02*
X75480000Y-55360000I-60000J0D01*
G01*
X75480000Y-55360000D02*
G75*
G02*
X75600000Y-55360000I60000J0D01*
G01*
X75709706Y-55360000D02*
G75*
G02*
X75370294Y-55360000I-169706J0D01*
G01*
X75370294Y-55360000D02*
G75*
G02*
X75709706Y-55360000I169706J0D01*
G01*
X75798070Y-55360000D02*
G75*
G02*
X75281930Y-55360000I-258070J0D01*
G01*
X75281930Y-55360000D02*
G75*
G02*
X75798070Y-55360000I258070J0D01*
G01*
X72340000Y-53280000D02*
X72840000Y-53740000D01*
X71980000Y-53460000D02*
X72260000Y-53870000D01*
X71400000Y-53440000D02*
X71670000Y-53910000D01*
X101460000Y-50960000D02*
X98880000Y-51420000D01*
X101780000Y-49910000D02*
X101460000Y-50960000D01*
X100750000Y-49090000D02*
X101780000Y-49910000D01*
X98080000Y-48530000D02*
X100750000Y-49090000D01*
X92120000Y-51870000D02*
X92120000Y-52166667D01*
X93500000Y-50130000D02*
X92240000Y-52110000D01*
X92240000Y-52110000D02*
X93500000Y-50130000D01*
X91160000Y-52620000D02*
X92240000Y-52110000D01*
X89750000Y-53430000D02*
X91160000Y-52680000D01*
X88130000Y-53940000D02*
X89750000Y-53430000D01*
X84470000Y-53940000D02*
X88130000Y-53940000D01*
X84150000Y-53730000D02*
X84470000Y-53940000D01*
X82910000Y-53190000D02*
X84150000Y-53730000D01*
X91835000Y-50620000D02*
X91160000Y-52620000D01*
X92560000Y-50280000D02*
X92120000Y-51870000D01*
X91110000Y-50960000D02*
X92560000Y-50280000D01*
X91110000Y-50960000D02*
X90430000Y-50960000D01*
X89540000Y-53470000D02*
X91110000Y-50960000D01*
X88480000Y-53810000D02*
X90610000Y-50680000D01*
X87510000Y-53920000D02*
X89880000Y-51020000D01*
X86510000Y-54020000D02*
X89110000Y-51000000D01*
X85180000Y-53870000D02*
X88970000Y-50510000D01*
X87330000Y-50510000D02*
X88970000Y-50510000D01*
X86850000Y-51330000D02*
X87330000Y-50510000D01*
X84150000Y-53730000D02*
X86850000Y-51330000D01*
X80930000Y-61980000D02*
X78260000Y-60540000D01*
X80540000Y-61400000D02*
X80930000Y-61980000D01*
X79140000Y-60490000D02*
X80540000Y-61400000D01*
X80540000Y-61400000D02*
X80965000Y-60705000D01*
X79840000Y-59580000D02*
X79140000Y-60490000D01*
X78260000Y-60540000D02*
X79140000Y-60490000D01*
X77790000Y-59420000D02*
X78820000Y-58457500D01*
X77110000Y-59480000D02*
X77790000Y-59420000D01*
X77800000Y-57640000D02*
X77955335Y-57505944D01*
X77070000Y-58270000D02*
X77800000Y-57640000D01*
X75900000Y-58290000D02*
X77070000Y-58270000D01*
X84510000Y-63340000D02*
X88090000Y-65090000D01*
X82580000Y-61380000D02*
X84510000Y-63340000D01*
X84790000Y-62930000D02*
X82750000Y-61175000D01*
X87640000Y-64200000D02*
X84790000Y-62930000D01*
X89040000Y-64440000D02*
X87640000Y-64200000D01*
X88800000Y-63590000D02*
X89040000Y-64440000D01*
X87000000Y-63590000D02*
X88800000Y-63590000D01*
X83980000Y-61750000D02*
X87000000Y-63590000D01*
X83020000Y-60910000D02*
X83980000Y-61750000D01*
X83310000Y-60620000D02*
X83020000Y-60910000D01*
X85800000Y-61800000D02*
X83310000Y-60620000D01*
X87650000Y-62340000D02*
X85800000Y-61800000D01*
X87650000Y-63010000D02*
X87650000Y-62340000D01*
X86530000Y-62670000D02*
X87650000Y-63010000D01*
X83230000Y-60760000D02*
X86530000Y-62670000D01*
X83410000Y-60520000D02*
X87590000Y-61850000D01*
X82090000Y-61830000D02*
X83410000Y-60520000D01*
X79840000Y-59580000D02*
X82090000Y-61830000D01*
X77800000Y-57335000D02*
X79840000Y-59580000D01*
X77140000Y-57520000D02*
X78460000Y-57150000D01*
X74880000Y-57190000D02*
X77140000Y-57520000D01*
X70160000Y-54820000D02*
X70320000Y-54820000D01*
X70440000Y-54620000D01*
X70290000Y-54400000D01*
X70060000Y-54400000D01*
X69930000Y-54610000D01*
X70160000Y-54820000D01*
G36*
X70440000Y-54620000D02*
G01*
X70320000Y-54820000D01*
X70160000Y-54820000D01*
X69930000Y-54610000D01*
X70060000Y-54400000D01*
X70290000Y-54400000D01*
X70440000Y-54620000D01*
G37*
X70280000Y-53500000D02*
X69260000Y-53610000D01*
X70450000Y-53700000D02*
X70280000Y-53500000D01*
X70700000Y-53700000D02*
X70450000Y-53700000D01*
X71080000Y-54500000D02*
X70700000Y-53700000D01*
X70830000Y-54930000D02*
X71080000Y-54500000D01*
X70270000Y-54930000D02*
X70830000Y-54930000D01*
X70210000Y-54930000D02*
X70270000Y-54930000D01*
X69970000Y-54610000D02*
X70210000Y-54930000D01*
X69610000Y-54610000D02*
X69970000Y-54610000D01*
X69310000Y-54110000D02*
X69610000Y-54610000D01*
X69260000Y-53610000D02*
X69310000Y-54110000D01*
X76930000Y-53590000D02*
X75570000Y-53755000D01*
X76930000Y-53070000D02*
X76930000Y-53590000D01*
X76400000Y-53070000D02*
X76930000Y-53070000D01*
X75410000Y-52530000D02*
X76400000Y-53070000D01*
X74460000Y-52530000D02*
X75410000Y-52530000D01*
X74330000Y-52310000D02*
X74460000Y-52530000D01*
X73700000Y-52720000D02*
X74330000Y-52310000D01*
X73700000Y-53210000D02*
X73700000Y-52720000D01*
X73880000Y-53370000D02*
X73700000Y-53210000D01*
X74670000Y-53130000D02*
X73880000Y-53370000D01*
X75570000Y-53350000D02*
X74670000Y-53130000D01*
X75570000Y-54160000D02*
X75570000Y-53350000D01*
X74960000Y-54660000D02*
X75570000Y-54160000D01*
X74350000Y-54660000D02*
X74960000Y-54660000D01*
X73820000Y-54220000D02*
X74350000Y-54660000D01*
X73880000Y-53370000D02*
X73820000Y-54220000D01*
X78620000Y-52150000D02*
X79910000Y-52190000D01*
X80990000Y-51650000D01*
X81080000Y-52260000D01*
X80090000Y-53470000D01*
X79200000Y-53880000D01*
X79730000Y-53940000D01*
X80750000Y-53400000D01*
X80840000Y-53680000D01*
X79080000Y-54460000D01*
X80770000Y-54320000D01*
X81200000Y-54110000D01*
X81210000Y-54410000D01*
X80190000Y-54780000D01*
X79040000Y-55030000D01*
X81070000Y-55070000D01*
X78680000Y-55580000D01*
X78970000Y-55850000D01*
X80400000Y-55910000D01*
X78360000Y-56180000D01*
X79390000Y-56680000D01*
X77890000Y-56670000D01*
X78460000Y-57150000D01*
X79410000Y-57140000D01*
X79730000Y-56920000D01*
X80650000Y-56840000D01*
X81500000Y-56040000D01*
X80420000Y-56450000D01*
X80580000Y-56040000D01*
X81610000Y-55460000D01*
X82640000Y-54320000D01*
X81870000Y-53680000D01*
X82550000Y-53190000D01*
X83900000Y-53190000D01*
X84180000Y-52940000D01*
X84750000Y-52510000D01*
X82730000Y-52480000D01*
X82900000Y-52200000D01*
X84900000Y-52170000D01*
X85430000Y-51670000D01*
X85520000Y-51320000D01*
X86690000Y-50460000D01*
X86540000Y-50320000D01*
X85560000Y-50340000D01*
X84150000Y-51470000D01*
X82620000Y-51490000D01*
X82190000Y-51900000D01*
X90830000Y-48510000D01*
X88630000Y-44260000D01*
X86890000Y-45210000D01*
X86130000Y-46270000D01*
X85520000Y-47070000D01*
X83970000Y-47570000D01*
X82860000Y-48540000D01*
X82810000Y-49280000D01*
X81950000Y-49300000D01*
X80810000Y-50480000D01*
X79970000Y-50610000D01*
X79830000Y-50680000D01*
X79740000Y-50920000D01*
X80700000Y-50730000D01*
X80650000Y-51060000D01*
X79270000Y-51400000D01*
X78550000Y-51890000D01*
X78480000Y-52160000D01*
X78620000Y-52150000D01*
G36*
X90830000Y-48510000D02*
G01*
X86199175Y-50326955D01*
X86540000Y-50320000D01*
X86690000Y-50460000D01*
X85520000Y-51320000D01*
X85430000Y-51670000D01*
X84900000Y-52170000D01*
X82900000Y-52200000D01*
X82730000Y-52480000D01*
X84750000Y-52510000D01*
X84180000Y-52940000D01*
X83900000Y-53190000D01*
X82550000Y-53190000D01*
X81870000Y-53680000D01*
X82640000Y-54320000D01*
X81610000Y-55460000D01*
X80580000Y-56040000D01*
X80420000Y-56450000D01*
X81500000Y-56040000D01*
X80650000Y-56840000D01*
X79730000Y-56920000D01*
X79410000Y-57140000D01*
X78460000Y-57150000D01*
X77890000Y-56670000D01*
X79390000Y-56680000D01*
X78360000Y-56180000D01*
X80400000Y-55910000D01*
X78970000Y-55850000D01*
X78680000Y-55580000D01*
X81070000Y-55070000D01*
X79040000Y-55030000D01*
X80190000Y-54780000D01*
X81210000Y-54410000D01*
X81200000Y-54110000D01*
X80770000Y-54320000D01*
X79080000Y-54460000D01*
X80840000Y-53680000D01*
X80750000Y-53400000D01*
X79730000Y-53940000D01*
X79200000Y-53880000D01*
X80090000Y-53470000D01*
X81080000Y-52260000D01*
X80990000Y-51650000D01*
X79910000Y-52190000D01*
X78620000Y-52150000D01*
X78480000Y-52160000D01*
X78550000Y-51890000D01*
X79149975Y-51481684D01*
X83256149Y-51481684D01*
X84150000Y-51470000D01*
X84978802Y-50805782D01*
X83256149Y-51481684D01*
X79149975Y-51481684D01*
X79270000Y-51400000D01*
X80650000Y-51060000D01*
X80700000Y-50730000D01*
X79740000Y-50920000D01*
X79830000Y-50680000D01*
X79970000Y-50610000D01*
X80810000Y-50480000D01*
X81950000Y-49300000D01*
X82810000Y-49280000D01*
X82860000Y-48540000D01*
X83970000Y-47570000D01*
X85520000Y-47070000D01*
X86130000Y-46270000D01*
X86890000Y-45210000D01*
X88630000Y-44260000D01*
X90830000Y-48510000D01*
G37*
X81730000Y-48560000D02*
X82170000Y-47290000D01*
X82420000Y-46810000D01*
X83040000Y-46440000D01*
X86300000Y-44260000D01*
X86890000Y-45210000D01*
X85250000Y-46870000D01*
X83110000Y-47860000D01*
X82370000Y-48540000D01*
X81600000Y-48810000D01*
X81730000Y-48560000D01*
G36*
X86890000Y-45210000D02*
G01*
X85250000Y-46870000D01*
X83110000Y-47860000D01*
X82370000Y-48540000D01*
X81600000Y-48810000D01*
X81730000Y-48560000D01*
X82170000Y-47290000D01*
X82420000Y-46810000D01*
X83040000Y-46440000D01*
X86300000Y-44260000D01*
X86890000Y-45210000D01*
G37*
X76710000Y-50760000D02*
X78010000Y-51150000D01*
X79530000Y-50180000D01*
X81390000Y-48110000D01*
X81730000Y-47010000D01*
X84380000Y-45800000D01*
X85240000Y-44090000D01*
X80230000Y-46320000D01*
X77880000Y-49680000D01*
X77580000Y-50160000D01*
X77180000Y-50170000D01*
X76710000Y-50760000D01*
G36*
X84380000Y-45800000D02*
G01*
X81730000Y-47010000D01*
X81390000Y-48110000D01*
X79530000Y-50180000D01*
X78010000Y-51150000D01*
X76710000Y-50760000D01*
X77180000Y-50170000D01*
X77580000Y-50160000D01*
X77880000Y-49680000D01*
X80230000Y-46320000D01*
X85240000Y-44090000D01*
X84380000Y-45800000D01*
G37*
M02*
