G04 #@! TF.GenerationSoftware,KiCad,Pcbnew,10.0.3*
G04 #@! TF.CreationDate,2026-07-02T13:46:23+08:00*
G04 #@! TF.ProjectId,fallout-badge,66616c6c-6f75-4742-9d62-616467652e6b,rev?*
G04 #@! TF.SameCoordinates,Original*
G04 #@! TF.FileFunction,Copper,L1,Top*
G04 #@! TF.FilePolarity,Positive*
%FSLAX46Y46*%
G04 Gerber Fmt 4.6, Leading zero omitted, Abs format (unit mm)*
G04 Created by KiCad (PCBNEW 10.0.3) date 2026-07-02 13:46:23*
%MOMM*%
%LPD*%
G01*
G04 APERTURE LIST*
G04 #@! TA.AperFunction,NonConductor*
%ADD10C,0.200000*%
G04 #@! TD*
G04 APERTURE END LIST*
D10*
X74080000Y-53690000D02*
X74110000Y-54140000D01*
X74360000Y-54250000D01*
X74410000Y-54360000D01*
X74680000Y-54410000D01*
X74680000Y-54220000D01*
X74830000Y-54220000D01*
X74810000Y-53650000D01*
X74650000Y-53650000D01*
X74650000Y-53510000D01*
X74250000Y-53520000D01*
X74230000Y-53650000D01*
X74080000Y-53690000D01*
G04 #@! TA.AperFunction,NonConductor*
G36*
X74650000Y-53650000D02*
G01*
X74810000Y-53650000D01*
X74830000Y-54220000D01*
X74680000Y-54220000D01*
X74680000Y-54410000D01*
X74410000Y-54360000D01*
X74360000Y-54250000D01*
X74110000Y-54140000D01*
X74080000Y-53690000D01*
X74230000Y-53650000D01*
X74250000Y-53520000D01*
X74650000Y-53510000D01*
X74650000Y-53650000D01*
G37*
G04 #@! TD.AperFunction*
X69790000Y-56400000D02*
X69730000Y-56740000D01*
X69860000Y-56750000D01*
X69870000Y-56860000D01*
X70080000Y-57030000D01*
X70290000Y-57020000D01*
X70770000Y-57160000D01*
X72110000Y-56230000D01*
X73120000Y-55780000D01*
X73500000Y-55680000D01*
X73460000Y-55560000D01*
X72500000Y-55590000D01*
X72460000Y-55410000D01*
X71900000Y-55440000D01*
X70890000Y-56270000D01*
X69790000Y-56400000D01*
G04 #@! TA.AperFunction,NonConductor*
G36*
X72500000Y-55590000D02*
G01*
X73460000Y-55560000D01*
X73500000Y-55680000D01*
X73120000Y-55780000D01*
X72110000Y-56230000D01*
X70770000Y-57160000D01*
X70290000Y-57020000D01*
X70080000Y-57030000D01*
X69870000Y-56860000D01*
X69860000Y-56750000D01*
X69730000Y-56740000D01*
X69790000Y-56400000D01*
X70890000Y-56270000D01*
X71900000Y-55440000D01*
X72460000Y-55410000D01*
X72500000Y-55590000D01*
G37*
G04 #@! TD.AperFunction*
M02*
